NotoSans-Bold.ufo
<glyph name="plusminus" format="2">
  <advance width="586"/>
  <unicode hex="00B1"/>
  <outline>
    <contour>
      <point x="45" y="0" type="line"/>
      <point x="540" y="0" type="line"/>
      <point x="540" y="131" type="line"/>
      <point x="45" y="131" type="line"/>
    </contour>
    <component base="plus" yOffset="43"/>
  </outline>
</glyph>
<glyph name="uni0191" format="2">
  <advance width="704"/>
  <unicode hex="0191"/>
  <anchor x="205" y="0" name="bottom"/>
  <anchor x="448" y="714" name="top"/>
  <anchor x="679" y="714" name="topright"/>
  <outline>
    <contour>
      <point x="213" y="-15" type="curve" smooth="yes"/>
      <point x="337" y="-15"/>
      <point x="437" y="50"/>
      <point x="437" y="195" type="curve" smooth="yes"/>
      <point x="437" y="285" type="line"/>
      <point x="627" y="285" type="line"/>
      <point x="627" y="444" type="line"/>
      <point x="437" y="444" type="line"/>
      <point x="437" y="555" type="line"/>
      <point x="644" y="555" type="line"/>
      <point x="644" y="714" type="line"/>
      <point x="247" y="714" type="line"/>
      <point x="247" y="192" type="line" smooth="yes"/>
      <point x="247" y="145"/>
      <point x="226" y="121"/>
      <point x="193" y="121" type="curve" smooth="yes"/>
      <point x="164" y="121"/>
      <point x="142" y="139"/>
      <point x="142" y="174" type="curve" smooth="yes"/>
      <point x="142" y="195"/>
      <point x="146" y="210"/>
      <point x="156" y="231" type="curve"/>
      <point x="20" y="279" type="line"/>
      <point x="3" y="255"/>
      <point x="-12" y="220"/>
      <point x="-12" y="177" type="curve" smooth="yes"/>
      <point x="-12" y="60"/>
      <point x="66" y="-15"/>
    </contour>
  </outline>
</glyph>
<glyph name="florin" format="2">
  <advance width="553"/>
  <unicode hex="0192"/>
  <anchor x="199" y="0" name="bottom"/>
  <anchor x="416" y="765" name="top"/>
  <anchor x="572" y="765" name="topright"/>
  <outline>
    <contour>
      <point x="204" y="-15" type="curve" smooth="yes"/>
      <point x="327" y="-15"/>
      <point x="426" y="44"/>
      <point x="426" y="187" type="curve" smooth="yes"/>
      <point x="426" y="410" type="line"/>
      <point x="544" y="410" type="line"/>
      <point x="544" y="553" type="line"/>
      <point x="426" y="553" type="line"/>
      <point x="426" y="568" type="line" smooth="yes"/>
      <point x="426" y="608"/>
      <point x="439" y="625"/>
      <point x="468" y="625" type="curve" smooth="yes"/>
      <point x="495" y="625"/>
      <point x="518" y="620"/>
      <point x="537" y="615" type="curve"/>
      <point x="578" y="739" type="line"/>
      <point x="527" y="756"/>
      <point x="484" y="765"/>
      <point x="427" y="765" type="curve" smooth="yes"/>
      <point x="293" y="765"/>
      <point x="239" y="703"/>
      <point x="239" y="560" type="curve" smooth="yes"/>
      <point x="239" y="551" type="line"/>
      <point x="162" y="504" type="line"/>
      <point x="162" y="410" type="line"/>
      <point x="235" y="410" type="line"/>
      <point x="235" y="186" type="line" smooth="yes"/>
      <point x="235" y="143"/>
      <point x="218" y="121"/>
      <point x="189" y="121" type="curve" smooth="yes"/>
      <point x="166" y="121"/>
      <point x="149" y="136"/>
      <point x="149" y="165" type="curve" smooth="yes"/>
      <point x="149" y="185"/>
      <point x="153" y="200"/>
      <point x="162" y="220" type="curve"/>
      <point x="22" y="267" type="line"/>
      <point x="8" y="244"/>
      <point x="-5" y="210"/>
      <point x="-5" y="168" type="curve" smooth="yes"/>
      <point x="-5" y="56"/>
      <point x="63" y="-15"/>
    </contour>
  </outline>
</glyph>
<glyph name="uni023A" format="2">
  <advance width="730"/>
  <unicode hex="023A"/>
  <anchor x="363" y="0" name="bottom"/>
  <anchor x="363" y="714" name="top"/>
  <anchor x="636" y="714" name="topright"/>
  <outline>
    <contour>
      <point x="597" y="760" type="line"/>
      <point x="476" y="760" type="line"/>
      <point x="186" y="-75" type="line"/>
      <point x="307" y="-75" type="line"/>
    </contour>
    <component base="A"/>
  </outline>
</glyph>
<glyph name="uni023B" format="2">
  <advance width="644"/>
  <unicode hex="023B"/>
  <anchor x="379" y="0" name="bottom"/>
  <anchor x="365" y="714" name="top"/>
  <anchor x="629" y="714" name="topright"/>
  <outline>
    <contour>
      <point x="588" y="760" type="line"/>
      <point x="467" y="760" type="line"/>
      <point x="177" y="-75" type="line"/>
      <point x="298" y="-75" type="line"/>
    </contour>
    <component base="C"/>
  </outline>
</glyph>
<glyph name="uni023C" format="2">
  <advance width="532"/>
  <unicode hex="023C"/>
  <anchor x="315" y="-208" name="bottom"/>
  <anchor x="293" y="760" name="top"/>
  <anchor x="514" y="553" name="topright"/>
  <outline>
    <contour>
      <point x="547" y="760" type="line"/>
      <point x="426" y="760" type="line"/>
      <point x="80" y="-208" type="line"/>
      <point x="202" y="-208" type="line"/>
    </contour>
    <component base="c"/>
  </outline>
</glyph>
<glyph name="uni023D" format="2">
  <advance width="582"/>
  <unicode hex="023D"/>
  <anchor x="309" y="0" name="bottom"/>
  <anchor x="170" y="714" name="top"/>
  <anchor x="291" y="357" name="center"/>
  <anchor x="364" y="714" name="topright"/>
  <outline>
    <contour>
      <point x="11" y="280" type="line"/>
      <point x="407" y="280" type="line"/>
      <point x="407" y="432" type="line"/>
      <point x="11" y="432" type="line"/>
    </contour>
    <component base="L"/>
  </outline>
</glyph>
<glyph name="uni0244" format="2">
  <advance width="757"/>
  <unicode hex="0244"/>
  <anchor x="377" y="0" name="bottom"/>
  <anchor x="379" y="714" name="top"/>
  <anchor x="737" y="714" name="topright"/>
  <outline>
    <contour>
      <point x="-2" y="312" type="line"/>
      <point x="760" y="312" type="line"/>
      <point x="760" y="473" type="line"/>
      <point x="-2" y="473" type="line"/>
    </contour>
    <component base="U"/>
  </outline>
</glyph>
<glyph name="uni0247" format="2">
  <advance width="610"/>
  <unicode hex="0247"/>
  <anchor x="333" y="-207" name="bottom"/>
  <anchor x="309" y="760" name="top"/>
  <anchor x="598" y="553" name="topright"/>
  <outline>
    <contour>
      <point x="536" y="760" type="line"/>
      <point x="412" y="760" type="line"/>
      <point x="78" y="-207" type="line"/>
      <point x="202" y="-207" type="line"/>
    </contour>
    <component base="e"/>
  </outline>
</glyph>
<glyph name="uni024C" format="2">
  <advance width="690"/>
  <unicode hex="024C"/>
  <anchor x="354" y="0" name="bottom"/>
  <anchor x="339" y="714" name="top"/>
  <anchor x="657" y="714" name="topright"/>
  <outline>
    <contour>
      <point x="117" y="257" type="line"/>
      <point x="117" y="416" type="line"/>
      <point x="10" y="416" type="line"/>
      <point x="10" y="257" type="line"/>
    </contour>
    <component base="R"/>
  </outline>
</glyph>
<glyph name="uni024D" format="2">
  <advance width="469"/>
  <unicode hex="024D"/>
  <anchor x="165" y="0" name="bottom"/>
  <anchor x="251" y="553" name="top"/>
  <anchor x="449" y="553" name="topright"/>
  <outline>
    <contour>
      <point x="362" y="328" type="line"/>
      <point x="-6" y="328" type="line"/>
      <point x="-6" y="205" type="line"/>
      <point x="362" y="205" type="line"/>
    </contour>
    <component base="r"/>
  </outline>
</glyph>
<glyph name="uni024F" format="2">
  <advance width="618"/>
  <unicode hex="024F"/>
  <anchor x="138" y="-240" name="bottom"/>
  <anchor x="305" y="553" name="top"/>
  <anchor x="590" y="553" name="topright"/>
  <outline>
    <contour>
      <point x="606" y="402" type="line"/>
      <point x="13" y="402" type="line"/>
      <point x="13" y="278" type="line"/>
      <point x="606" y="278" type="line"/>
    </contour>
    <component base="y"/>
  </outline>
</glyph>
<glyph name="uni0262" format="2">
  <advance width="610"/>
  <unicode hex="0262"/>
  <anchor x="305" y="0" name="bottom"/>
  <anchor x="305" y="553" name="top"/>
  <anchor x="563" y="553" name="topright"/>
  <outline>
    <contour>
      <point x="345" y="562" type="curve"/>
      <point x="136" y="562"/>
      <point x="41" y="434"/>
      <point x="41" y="277" type="curve"/>
      <point x="41" y="102"/>
      <point x="134" y="-11"/>
      <point x="342" y="-11" type="curve" smooth="yes"/>
      <point x="435" y="-11"/>
      <point x="511" y="16"/>
      <point x="557" y="37" type="curve"/>
      <point x="557" y="326" type="line"/>
      <point x="292" y="326" type="line"/>
      <point x="292" y="201" type="line"/>
      <point x="371" y="201" type="line"/>
      <point x="371" y="148" type="line"/>
      <point x="353" y="144"/>
      <point x="348" y="143"/>
      <point x="333" y="143" type="curve"/>
      <point x="263" y="143"/>
      <point x="238" y="196"/>
      <point x="238" y="277" type="curve"/>
      <point x="238" y="376"/>
      <point x="297" y="408"/>
      <point x="357" y="408" type="curve"/>
      <point x="411" y="408"/>
      <point x="450" y="392"/>
      <point x="490" y="369" type="curve"/>
      <point x="547" y="515" type="line"/>
      <point x="472" y="553"/>
      <point x="413" y="562"/>
    </contour>
  </outline>
</glyph>
<glyph name="uni0268" format="2">
  <advance width="325"/>
  <unicode hex="0268"/>
  <anchor x="166" y="0" name="bottom"/>
  <anchor x="163" y="776" name="top"/>
  <anchor x="305" y="776" name="topright"/>
  <outline>
    <contour>
      <point x="330" y="337" type="line"/>
      <point x="-5" y="337" type="line"/>
      <point x="-5" y="216" type="line"/>
      <point x="330" y="216" type="line"/>
    </contour>
    <component base="i"/>
  </outline>
</glyph>
<glyph name="uni026A" format="2">
  <advance width="387"/>
  <unicode hex="026A"/>
  <anchor x="194" y="0" name="bottom"/>
  <anchor x="194" y="553" name="top"/>
  <outline>
    <contour>
      <point x="381" y="553" type="line"/>
      <point x="5" y="553" type="line"/>
      <point x="5" y="463" type="line"/>
      <point x="97" y="406" type="line"/>
      <point x="97" y="147" type="line"/>
      <point x="5" y="90" type="line"/>
      <point x="5" y="0" type="line"/>
      <point x="381" y="0" type="line"/>
      <point x="381" y="90" type="line"/>
      <point x="290" y="147" type="line"/>
      <point x="290" y="406" type="line"/>
      <point x="381" y="463" type="line"/>
    </contour>
  </outline>
</glyph>
<glyph name="uni0274" format="2">
  <advance width="747"/>
  <unicode hex="0274"/>
  <anchor x="374" y="0" name="bottom"/>
  <anchor x="374" y="553" name="top"/>
  <anchor x="713" y="553" name="topright"/>
  <outline>
    <contour>
      <point x="70" y="0" type="line"/>
      <point x="253" y="0" type="line"/>
      <point x="253" y="177" type="line" smooth="yes"/>
      <point x="253" y="229"/>
      <point x="252" y="291"/>
      <point x="248" y="342" type="curve"/>
      <point x="444" y="0" type="line"/>
      <point x="677" y="0" type="line"/>
      <point x="677" y="553" type="line"/>
      <point x="495" y="553" type="line"/>
      <point x="495" y="360" type="line" smooth="yes"/>
      <point x="495" y="310"/>
      <point x="497" y="256"/>
      <point x="502" y="206" type="curve"/>
      <point x="301" y="553" type="line"/>
      <point x="70" y="553" type="line"/>
    </contour>
  </outline>
</glyph>
<glyph name="uni0280" format="2">
  <advance width="646"/>
  <unicode hex="0280"/>
  <anchor x="323" y="0" name="bottom"/>
  <anchor x="323" y="553" name="top"/>
  <outline>
    <contour>
      <point x="84" y="0" type="line"/>
      <point x="278" y="0" type="line"/>
      <point x="278" y="194" type="line"/>
      <point x="316" y="194" type="line"/>
      <point x="436" y="0" type="line"/>
      <point x="647" y="0" type="line"/>
      <point x="484" y="224" type="line"/>
      <point x="550" y="251"/>
      <point x="594" y="297"/>
      <point x="594" y="383" type="curve" smooth="yes"/>
      <point x="594" y="500"/>
      <point x="499" y="550"/>
      <point x="362" y="550" type="curve"/>
      <point x="84" y="550" type="line"/>
    </contour>
    <contour>
      <point x="278" y="319" type="line"/>
      <point x="278" y="419" type="line"/>
      <point x="345" y="419" type="line"/>
      <point x="388" y="419"/>
      <point x="405" y="397"/>
      <point x="405" y="374" type="curve"/>
      <point x="405" y="341"/>
      <point x="380" y="319"/>
      <point x="334" y="319" type="curve"/>
    </contour>
  </outline>
</glyph>
<glyph name="uni028F" format="2">
  <advance width="620"/>
  <unicode hex="028F"/>
  <anchor x="310" y="0" name="bottom"/>
  <anchor x="310" y="553" name="top"/>
  <outline>
    <contour>
      <point x="625" y="553" type="line"/>
      <point x="405" y="553" type="line"/>
      <point x="312" y="375" type="line"/>
      <point x="215" y="553" type="line"/>
      <point x="-5" y="553" type="line"/>
      <point x="213" y="198" type="line"/>
      <point x="213" y="0" type="line"/>
      <point x="407" y="0" type="line"/>
      <point x="407" y="198" type="line"/>
    </contour>
  </outline>
</glyph>
<glyph name="uni029F" format="2">
  <advance width="495"/>
  <unicode hex="029F"/>
  <anchor x="248" y="0" name="bottom"/>
  <anchor x="248" y="553" name="top"/>
  <outline>
    <contour>
      <point x="66" y="0" type="line"/>
      <point x="471" y="0" type="line"/>
      <point x="471" y="144" type="line"/>
      <point x="257" y="144" type="line"/>
      <point x="257" y="553" type="line"/>
      <point x="66" y="553" type="line"/>
    </contour>
  </outline>
</glyph>
<glyph name="uni0488" format="2">
  <advance width="985"/>
  <unicode hex="0488"/>
  <outline>
    <contour>
      <point x="660" y="456" type="curve"/>
      <point x="718" y="456" type="line"/>
      <point x="720" y="484"/>
      <point x="755" y="488"/>
      <point x="778" y="488" type="curve" smooth="yes"/>
      <point x="808" y="488"/>
      <point x="837" y="486"/>
      <point x="839" y="456" type="curve"/>
      <point x="895" y="456" type="line"/>
      <point x="892" y="517"/>
      <point x="847" y="557"/>
      <point x="778" y="557" type="curve" smooth="yes"/>
      <point x="713" y="557"/>
      <point x="663" y="515"/>
    </contour>
    <contour>
      <point x="90" y="-20" type="curve"/>
      <point x="148" y="-20" type="line"/>
      <point x="150" y="8"/>
      <point x="185" y="12"/>
      <point x="208" y="12" type="curve" smooth="yes"/>
      <point x="238" y="12"/>
      <point x="267" y="10"/>
      <point x="269" y="-20" type="curve"/>
      <point x="325" y="-20" type="line"/>
      <point x="322" y="41"/>
      <point x="277" y="81"/>
      <point x="208" y="81" type="curve" smooth="yes"/>
      <point x="143" y="81"/>
      <point x="93" y="39"/>
    </contour>
    <contour>
      <point x="371" y="-156" type="curve"/>
      <point x="429" y="-156" type="line"/>
      <point x="431" y="-128"/>
      <point x="466" y="-124"/>
      <point x="489" y="-124" type="curve" smooth="yes"/>
      <point x="519" y="-124"/>
      <point x="548" y="-126"/>
      <point x="550" y="-156" type="curve"/>
      <point x="606" y="-156" type="line"/>
      <point x="603" y="-95"/>
      <point x="558" y="-55"/>
      <point x="489" y="-55" type="curve" smooth="yes"/>
      <point x="424" y="-55"/>
      <point x="374" y="-97"/>
    </contour>
    <contour>
      <point x="18" y="221" type="curve"/>
      <point x="76" y="221" type="line"/>
      <point x="78" y="249"/>
      <point x="113" y="253"/>
      <point x="136" y="253" type="curve" smooth="yes"/>
      <point x="166" y="253"/>
      <point x="195" y="251"/>
      <point x="197" y="221" type="curve"/>
      <point x="253" y="221" type="line"/>
      <point x="250" y="282"/>
      <point x="205" y="322"/>
      <point x="136" y="322" type="curve" smooth="yes"/>
      <point x="71" y="322"/>
      <point x="21" y="280"/>
    </contour>
    <contour>
      <point x="90" y="456" type="curve"/>
      <point x="148" y="456" type="line"/>
      <point x="150" y="484"/>
      <point x="185" y="488"/>
      <point x="208" y="488" type="curve" smooth="yes"/>
      <point x="238" y="488"/>
      <point x="267" y="486"/>
      <point x="269" y="456" type="curve"/>
      <point x="325" y="456" type="line"/>
      <point x="322" y="517"/>
      <point x="277" y="557"/>
      <point x="208" y="557" type="curve" smooth="yes"/>
      <point x="143" y="557"/>
      <point x="93" y="515"/>
    </contour>
    <contour>
      <point x="660" y="-20" type="curve"/>
      <point x="718" y="-20" type="line"/>
      <point x="720" y="8"/>
      <point x="755" y="12"/>
      <point x="778" y="12" type="curve" smooth="yes"/>
      <point x="808" y="12"/>
      <point x="837" y="10"/>
      <point x="839" y="-20" type="curve"/>
      <point x="895" y="-20" type="line"/>
      <point x="892" y="41"/>
      <point x="847" y="81"/>
      <point x="778" y="81" type="curve" smooth="yes"/>
      <point x="713" y="81"/>
      <point x="663" y="39"/>
    </contour>
    <contour>
      <point x="732" y="221" type="curve"/>
      <point x="790" y="221" type="line"/>
      <point x="792" y="249"/>
      <point x="827" y="253"/>
      <point x="850" y="253" type="curve" smooth="yes"/>
      <point x="880" y="253"/>
      <point x="909" y="251"/>
      <point x="911" y="221" type="curve"/>
      <point x="967" y="221" type="line"/>
      <point x="964" y="282"/>
      <point x="919" y="322"/>
      <point x="850" y="322" type="curve" smooth="yes"/>
      <point x="785" y="322"/>
      <point x="735" y="280"/>
    </contour>
    <contour>
      <point x="371" y="595" type="curve"/>
      <point x="429" y="595" type="line"/>
      <point x="431" y="623"/>
      <point x="466" y="627"/>
      <point x="489" y="627" type="curve" smooth="yes"/>
      <point x="519" y="627"/>
      <point x="548" y="625"/>
      <point x="550" y="595" type="curve"/>
      <point x="606" y="595" type="line"/>
      <point x="603" y="656"/>
      <point x="558" y="696"/>
      <point x="489" y="696" type="curve" smooth="yes"/>
      <point x="424" y="696"/>
      <point x="374" y="654"/>
    </contour>
  </outline>
</glyph>
<glyph name="uni0489" format="2">
  <advance width="952"/>
  <unicode hex="0489"/>
  <outline>
    <contour>
      <point x="791" y="593" type="line"/>
      <point x="738" y="573"/>
      <point x="677" y="546"/>
      <point x="632" y="520" type="curve"/>
      <point x="631" y="511" type="line"/>
      <point x="707" y="435" type="line"/>
      <point x="746" y="464"/>
      <point x="804" y="502"/>
      <point x="852" y="532" type="curve"/>
    </contour>
    <contour>
      <point x="245" y="85" type="line"/>
      <point x="207" y="56"/>
      <point x="149" y="17"/>
      <point x="101" y="-12" type="curve"/>
      <point x="162" y="-74" type="line"/>
      <point x="214" y="-54"/>
      <point x="276" y="-26"/>
      <point x="320" y="0" type="curve"/>
      <point x="322" y="8" type="line"/>
    </contour>
    <contour>
      <point x="18" y="343" type="curve"/>
      <point x="18" y="256" type="line"/>
      <point x="69" y="233"/>
      <point x="132" y="209"/>
      <point x="182" y="196" type="curve"/>
      <point x="189" y="201" type="line"/>
      <point x="189" y="309" type="line"/>
      <point x="141" y="316"/>
      <point x="73" y="330"/>
    </contour>
    <contour>
      <point x="545" y="-17" type="line"/>
      <point x="437" y="-17" type="line"/>
      <point x="430" y="-65"/>
      <point x="416" y="-133"/>
      <point x="403" y="-188" type="curve"/>
      <point x="490" y="-188" type="line"/>
      <point x="513" y="-137"/>
      <point x="537" y="-74"/>
      <point x="550" y="-24" type="curve"/>
    </contour>
    <contour>
      <point x="727" y="105" type="line"/>
      <point x="651" y="29" type="line"/>
      <point x="680" y="-10"/>
      <point x="718" y="-68"/>
      <point x="748" y="-116" type="curve"/>
      <point x="809" y="-55" type="line"/>
      <point x="789" y="-2"/>
      <point x="762" y="59"/>
      <point x="736" y="104" type="curve"/>
    </contour>
    <contour>
      <point x="204" y="635" type="curve"/>
      <point x="142" y="574" type="line"/>
      <point x="162" y="522"/>
      <point x="190" y="460"/>
      <point x="216" y="416" type="curve"/>
      <point x="224" y="414" type="line"/>
      <point x="301" y="491" type="line"/>
      <point x="272" y="529"/>
      <point x="233" y="587"/>
    </contour>
    <contour>
      <point x="770" y="343" type="curve"/>
      <point x="763" y="338" type="line"/>
      <point x="763" y="230" type="line"/>
      <point x="811" y="223"/>
      <point x="879" y="209"/>
      <point x="934" y="196" type="curve"/>
      <point x="934" y="283" type="line"/>
      <point x="883" y="306"/>
      <point x="820" y="330"/>
    </contour>
    <contour>
      <point x="550" y="728" type="curve"/>
      <point x="463" y="728" type="line"/>
      <point x="440" y="677"/>
      <point x="416" y="614"/>
      <point x="403" y="564" type="curve"/>
      <point x="408" y="557" type="line"/>
      <point x="516" y="557" type="line"/>
      <point x="523" y="605"/>
      <point x="537" y="673"/>
    </contour>
  </outline>
</glyph>
<glyph name="uni049C" format="2">
  <advance width="697"/>
  <unicode hex="049C"/>
  <anchor x="349" y="0" name="bottom"/>
  <anchor x="349" y="714" name="top"/>
  <outline>
    <contour>
      <point x="404" y="60" type="line"/>
      <point x="404" y="676" type="line"/>
      <point x="326" y="676" type="line"/>
      <point x="326" y="60" type="line"/>
    </contour>
    <component base="afii10028"/>
  </outline>
</glyph>
<glyph name="uni051E" format="2">
  <advance width="717"/>
  <unicode hex="051E"/>
  <anchor x="359" y="0" name="bottom"/>
  <anchor x="359" y="714" name="top"/>
  <outline>
    <contour>
      <point x="295" y="648" type="line"/>
      <point x="596" y="324" type="line"/>
      <point x="690" y="409" type="line"/>
      <point x="389" y="733" type="line"/>
    </contour>
    <component base="afii10028"/>
  </outline>
</glyph>
<glyph name="uni051F" format="2">
  <advance width="691"/>
  <unicode hex="051F"/>
  <anchor x="346" y="0" name="bottom"/>
  <anchor x="346" y="553" name="top"/>
  <outline>
    <contour>
      <point x="315" y="494" type="line"/>
      <point x="541" y="251" type="line"/>
      <point x="629" y="332" type="line"/>
      <point x="402" y="576" type="line"/>
    </contour>
    <component base="afii10076"/>
  </outline>
</glyph>
<glyph name="uni052A" format="2">
  <advance width="1554"/>
  <unicode hex="052A"/>
  <anchor x="777" y="-222" name="bottom"/>
  <anchor x="777" y="714" name="top"/>
  <outline>
    <contour>
      <point x="645" y="444" type="line"/>
      <point x="645" y="300" type="line"/>
      <point x="987" y="300" type="line"/>
      <point x="987" y="444" type="line"/>
    </contour>
    <component base="afii10021"/>
    <component base="afii10028" xOffset="857"/>
  </outline>
</glyph>
<glyph name="uni052B" format="2">
  <advance width="1413"/>
  <unicode hex="052B"/>
  <anchor x="707" y="-203" name="bottom"/>
  <anchor x="707" y="553" name="top"/>
  <outline>
    <contour>
      <point x="566" y="349" type="line"/>
      <point x="566" y="219" type="line"/>
      <point x="848" y="219" type="line"/>
      <point x="848" y="349" type="line"/>
    </contour>
    <component base="afii10069"/>
    <component base="afii10076" xOffset="737"/>
  </outline>
</glyph>
<glyph name="uni1ABA" format="2">
  <unicode hex="1ABA"/>
  <anchor x="-9" y="0" name="_bottom"/>
  <anchor x="-7" y="-259" name="bottom"/>
  <outline>
    <contour>
      <point x="4" y="40" type="line"/>
      <point x="-66" y="-107" type="line"/>
      <point x="26" y="-141" type="line"/>
      <point x="112" y="40" type="line"/>
    </contour>
    <contour>
      <point x="-129" y="-176" type="curve" smooth="yes"/>
      <point x="-129" y="-232"/>
      <point x="-91" y="-259"/>
      <point x="-42" y="-259" type="curve" smooth="yes"/>
      <point x="5" y="-259"/>
      <point x="46" y="-232"/>
      <point x="46" y="-176" type="curve" smooth="yes"/>
      <point x="46" y="-122"/>
      <point x="6" y="-92"/>
      <point x="-43" y="-92" type="curve" smooth="yes"/>
      <point x="-87" y="-92"/>
      <point x="-129" y="-120"/>
    </contour>
  </outline>
</glyph>
<glyph name="uni1D00" format="2">
  <advance width="566"/>
  <unicode hex="1D00"/>
  <anchor x="283" y="0" name="bottom"/>
  <anchor x="283" y="553" name="top"/>
  <outline>
    <contour>
      <point x="0" y="0" type="line"/>
      <point x="165" y="0" type="line"/>
      <point x="193" y="103" type="line"/>
      <point x="374" y="103" type="line"/>
      <point x="402" y="0" type="line"/>
      <point x="566" y="0" type="line"/>
      <point x="382" y="552" type="line"/>
      <point x="182" y="552" type="line"/>
    </contour>
    <contour>
      <point x="225" y="225" type="line"/>
      <point x="249" y="315" type="line" smooth="yes"/>
      <point x="258" y="351"/>
      <point x="276" y="424"/>
      <point x="283" y="461" type="curve"/>
      <point x="290" y="424"/>
      <point x="311" y="344"/>
      <point x="319" y="315" type="curve" smooth="yes"/>
      <point x="343" y="225" type="line"/>
    </contour>
  </outline>
</glyph>
<glyph name="uni1D03" format="2">
  <advance width="629"/>
  <unicode hex="1D03"/>
  <anchor x="284" y="0" name="bottom"/>
  <anchor x="284" y="553" name="top"/>
  <outline>
    <contour>
      <point x="624" y="339" type="line"/>
      <point x="14" y="339" type="line"/>
      <point x="14" y="230" type="line"/>
      <point x="624" y="230" type="line"/>
    </contour>
    <component base="uni0299"/>
  </outline>
</glyph>
<glyph name="uni1D04" format="2">
  <advance width="506"/>
  <unicode hex="1D04"/>
  <anchor x="253" y="0" name="bottom"/>
  <anchor x="253" y="553" name="top"/>
  <outline>
    <contour>
      <point x="308" y="436" type="curve" smooth="yes"/>
      <point x="355" y="436"/>
      <point x="395" y="421"/>
      <point x="436" y="402" type="curve"/>
      <point x="482" y="519" type="line"/>
      <point x="425" y="546"/>
      <point x="363" y="558"/>
      <point x="310" y="558" type="curve" smooth="yes"/>
      <point x="136" y="558"/>
      <point x="40" y="440"/>
      <point x="40" y="273" type="curve" smooth="yes"/>
      <point x="40" y="106"/>
      <point x="119" y="-8"/>
      <point x="300" y="-8" type="curve" smooth="yes"/>
      <point x="358" y="-8"/>
      <point x="409" y="2"/>
      <point x="458" y="23" type="curve"/>
      <point x="458" y="149" type="line"/>
      <point x="411" y="129"/>
      <point x="366" y="114"/>
      <point x="317" y="114" type="curve" smooth="yes"/>
      <point x="234" y="114"/>
      <point x="194" y="169"/>
      <point x="194" y="273" type="curve" smooth="yes"/>
      <point x="194" y="375"/>
      <point x="237" y="436"/>
    </contour>
  </outline>
</glyph>
<glyph name="uni1D07" format="2">
  <advance width="428"/>
  <unicode hex="1D07"/>
  <anchor x="214" y="0" name="bottom"/>
  <anchor x="214" y="553" name="top"/>
  <outline>
    <contour>
      <point x="391" y="0" type="line"/>
      <point x="391" y="121" type="line"/>
      <point x="211" y="121" type="line"/>
      <point x="211" y="225" type="line"/>
      <point x="378" y="225" type="line"/>
      <point x="378" y="344" type="line"/>
      <point x="211" y="344" type="line"/>
      <point x="211" y="431" type="line"/>
      <point x="391" y="431" type="line"/>
      <point x="391" y="550" type="line"/>
      <point x="60" y="550" type="line"/>
      <point x="60" y="0" type="line"/>
    </contour>
  </outline>
</glyph>
<glyph name="uni1D0B" format="2">
  <advance width="536"/>
  <unicode hex="1D0B"/>
  <anchor x="268" y="0" name="bottom"/>
  <anchor x="268" y="553" name="top"/>
  <outline>
    <contour>
      <point x="60" y="0" type="line"/>
      <point x="211" y="0" type="line"/>
      <point x="211" y="184" type="line"/>
      <point x="256" y="210" type="line"/>
      <point x="366" y="0" type="line"/>
      <point x="536" y="0" type="line"/>
      <point x="363" y="303" type="line"/>
      <point x="539" y="552" type="line"/>
      <point x="374" y="552" type="line"/>
      <point x="257" y="381" type="line" smooth="yes"/>
      <point x="242" y="360"/>
      <point x="224" y="335"/>
      <point x="211" y="311" type="curve"/>
      <point x="211" y="552" type="line"/>
      <point x="60" y="552" type="line"/>
    </contour>
  </outline>
</glyph>
<glyph name="uni1D0D" format="2">
  <advance width="754"/>
  <unicode hex="1D0D"/>
  <anchor x="377" y="0" name="bottom"/>
  <anchor x="377" y="553" name="top"/>
  <outline>
    <contour>
      <point x="60" y="0" type="line"/>
      <point x="193" y="0" type="line"/>
      <point x="193" y="239" type="line" smooth="yes"/>
      <point x="193" y="295"/>
      <point x="189" y="366"/>
      <point x="186" y="396" type="curve"/>
      <point x="189" y="396" type="line"/>
      <point x="303" y="0" type="line"/>
      <point x="446" y="0" type="line"/>
      <point x="558" y="395" type="line"/>
      <point x="562" y="395" type="line"/>
      <point x="559" y="365"/>
      <point x="556" y="293"/>
      <point x="556" y="241" type="curve" smooth="yes"/>
      <point x="556" y="0" type="line"/>
      <point x="694" y="0" type="line"/>
      <point x="694" y="550" type="line"/>
      <point x="494" y="550" type="line"/>
      <point x="380" y="159" type="line"/>
      <point x="377" y="159" type="line"/>
      <point x="261" y="550" type="line"/>
      <point x="60" y="550" type="line"/>
    </contour>
  </outline>
</glyph>
<glyph name="uni1D0F" format="2">
  <advance width="622"/>
  <unicode hex="1D0F"/>
  <anchor x="311" y="0" name="bottom"/>
  <anchor x="311" y="553" name="top"/>
  <outline>
    <contour>
      <point x="581" y="276" type="curve" smooth="yes"/>
      <point x="581" y="447"/>
      <point x="502" y="558"/>
      <point x="311" y="558" type="curve" smooth="yes"/>
      <point x="123" y="558"/>
      <point x="40" y="447"/>
      <point x="40" y="276" type="curve" smooth="yes"/>
      <point x="40" y="105"/>
      <point x="123" y="-8"/>
      <point x="310" y="-8" type="curve" smooth="yes"/>
      <point x="502" y="-8"/>
      <point x="581" y="105"/>
    </contour>
    <contour>
      <point x="198" y="276" type="curve" smooth="yes"/>
      <point x="198" y="375"/>
      <point x="229" y="437"/>
      <point x="311" y="437" type="curve" smooth="yes"/>
      <point x="393" y="437"/>
      <point x="423" y="375"/>
      <point x="423" y="276" type="curve" smooth="yes"/>
      <point x="423" y="176"/>
      <point x="393" y="116"/>
      <point x="310" y="116" type="curve" smooth="yes"/>
      <point x="230" y="116"/>
      <point x="198" y="176"/>
    </contour>
  </outline>
</glyph>
<glyph name="uni1D18" format="2">
  <advance width="493"/>
  <unicode hex="1D18"/>
  <anchor x="247" y="0" name="bottom"/>
  <anchor x="247" y="553" name="top"/>
  <outline>
    <contour>
      <point x="253" y="553" type="curve" smooth="yes"/>
      <point x="60" y="553" type="line"/>
      <point x="60" y="0" type="line"/>
      <point x="211" y="0" type="line"/>
      <point x="211" y="186" type="line"/>
      <point x="253" y="186" type="line" smooth="yes"/>
      <point x="411" y="186"/>
      <point x="464" y="278"/>
      <point x="464" y="378" type="curve" smooth="yes"/>
      <point x="464" y="490"/>
      <point x="394" y="553"/>
    </contour>
    <contour>
      <point x="250" y="433" type="line" smooth="yes"/>
      <point x="293" y="433"/>
      <point x="312" y="412"/>
      <point x="312" y="377" type="curve" smooth="yes"/>
      <point x="312" y="327"/>
      <point x="277" y="306"/>
      <point x="238" y="306" type="curve" smooth="yes"/>
      <point x="211" y="306" type="line"/>
      <point x="211" y="433" type="line"/>
    </contour>
  </outline>
</glyph>
<glyph name="uni1D1B" format="2">
  <advance width="461"/>
  <unicode hex="1D1B"/>
  <anchor x="231" y="0" name="bottom"/>
  <anchor x="231" y="553" name="top"/>
  <outline>
    <contour>
      <point x="306" y="0" type="line"/>
      <point x="306" y="428" type="line"/>
      <point x="441" y="428" type="line"/>
      <point x="441" y="550" type="line"/>
      <point x="20" y="550" type="line"/>
      <point x="20" y="428" type="line"/>
      <point x="155" y="428" type="line"/>
      <point x="155" y="0" type="line"/>
    </contour>
  </outline>
</glyph>
<glyph name="uni1D1C" format="2">
  <advance width="590"/>
  <unicode hex="1D1C"/>
  <anchor x="295" y="0" name="bottom"/>
  <anchor x="295" y="553" name="top"/>
  <outline>
    <contour>
      <point x="534" y="550" type="line"/>
      <point x="383" y="550" type="line"/>
      <point x="383" y="228" type="line" smooth="yes"/>
      <point x="383" y="149"/>
      <point x="357" y="116"/>
      <point x="296" y="116" type="curve" smooth="yes"/>
      <point x="238" y="116"/>
      <point x="208" y="149"/>
      <point x="208" y="227" type="curve" smooth="yes"/>
      <point x="208" y="550" type="line"/>
      <point x="57" y="550" type="line"/>
      <point x="57" y="216" type="line" smooth="yes"/>
      <point x="57" y="73"/>
      <point x="140" y="-8"/>
      <point x="293" y="-8" type="curve" smooth="yes"/>
      <point x="454" y="-8"/>
      <point x="534" y="80"/>
      <point x="534" y="219" type="curve" smooth="yes"/>
    </contour>
  </outline>
</glyph>
<glyph name="uni1D21" format="2">
  <advance width="810"/>
  <unicode hex="1D21"/>
  <anchor x="405" y="0" name="bottom"/>
  <anchor x="405" y="553" name="top"/>
  <outline>
    <contour>
      <point x="150" y="0" type="line"/>
      <point x="328" y="0" type="line"/>
      <point x="381" y="239" type="line" smooth="yes"/>
      <point x="385" y="255"/>
      <point x="399" y="321"/>
      <point x="404" y="362" type="curve"/>
      <point x="408" y="362" type="line"/>
      <point x="413" y="321"/>
      <point x="427" y="255"/>
      <point x="431" y="239" type="curve" smooth="yes"/>
      <point x="484" y="0" type="line"/>
      <point x="661" y="0" type="line"/>
      <point x="799" y="553" type="line"/>
      <point x="654" y="553" type="line"/>
      <point x="592" y="273" type="line" smooth="yes"/>
      <point x="586" y="248"/>
      <point x="571" y="178"/>
      <point x="566" y="138" type="curve"/>
      <point x="564" y="138" type="line"/>
      <point x="556" y="199"/>
      <point x="532" y="301"/>
      <point x="523" y="342" type="curve" smooth="yes"/>
      <point x="476" y="553" type="line"/>
      <point x="336" y="553" type="line"/>
      <point x="287" y="342" type="line" smooth="yes"/>
      <point x="277" y="300"/>
      <point x="257" y="203"/>
      <point x="248" y="141" type="curve"/>
      <point x="244" y="141" type="line"/>
      <point x="238" y="180"/>
      <point x="223" y="250"/>
      <point x="218" y="274" type="curve" smooth="yes"/>
      <point x="157" y="553" type="line"/>
      <point x="12" y="553" type="line"/>
    </contour>
  </outline>
</glyph>
<glyph name="uni1D24" format="2">
  <advance width="533"/>
  <unicode hex="1D24"/>
  <anchor x="267" y="0" name="bottom"/>
  <anchor x="267" y="553" name="top"/>
  <outline>
    <contour>
      <point x="264" y="-10" type="curve" smooth="yes"/>
      <point x="343" y="-10"/>
      <point x="410" y="2"/>
      <point x="474" y="26" type="curve"/>
      <point x="474" y="169" type="line"/>
      <point x="406" y="137"/>
      <point x="338" y="129"/>
      <point x="286" y="129" type="curve" smooth="yes"/>
      <point x="243" y="129"/>
      <point x="220" y="147"/>
      <point x="220" y="167" type="curve" smooth="yes"/>
      <point x="220" y="196"/>
      <point x="252" y="211"/>
      <point x="338" y="215" type="curve"/>
      <point x="338" y="258" type="line"/>
      <point x="449" y="280"/>
      <point x="486" y="335"/>
      <point x="486" y="410" type="curve" smooth="yes"/>
      <point x="486" y="513"/>
      <point x="405" y="563"/>
      <point x="268" y="563" type="curve" smooth="yes"/>
      <point x="195" y="563"/>
      <point x="124" y="544"/>
      <point x="55" y="513" type="curve"/>
      <point x="101" y="395" type="line"/>
      <point x="152" y="420"/>
      <point x="204" y="434"/>
      <point x="247" y="434" type="curve" smooth="yes"/>
      <point x="289" y="434"/>
      <point x="304" y="419"/>
      <point x="304" y="399" type="curve" smooth="yes"/>
      <point x="304" y="373"/>
      <point x="270" y="363"/>
      <point x="216" y="359" type="curve"/>
      <point x="216" y="315" type="line"/>
      <point x="94" y="293"/>
      <point x="40" y="241"/>
      <point x="40" y="159" type="curve" smooth="yes"/>
      <point x="40" y="60"/>
      <point x="96" y="-10"/>
    </contour>
  </outline>
</glyph>
<glyph name="uni1D70" format="2">
  <advance width="731"/>
  <unicode hex="1D70"/>
  <anchor x="366" y="0" name="bottom"/>
  <anchor x="366" y="553" name="top"/>
  <anchor x="667" y="553" name="topright"/>
  <outline>
    <contour>
      <point x="761" y="325" type="curve"/>
      <point x="668" y="325" type="line"/>
      <point x="666" y="282"/>
      <point x="633" y="269"/>
      <point x="598" y="269" type="curve"/>
      <point x="471" y="269"/>
      <point x="252" y="341"/>
      <point x="125" y="341" type="curve"/>
      <point x="28" y="341"/>
      <point x="-34" y="277"/>
      <point x="-30" y="173" type="curve"/>
      <point x="63" y="173" type="line"/>
      <point x="64" y="218"/>
      <point x="85" y="227"/>
      <point x="128" y="227" type="curve"/>
      <point x="280" y="227"/>
      <point x="433" y="164"/>
      <point x="607" y="164" type="curve"/>
      <point x="710" y="164"/>
      <point x="759" y="219"/>
    </contour>
    <component base="n" xOffset="31"/>
  </outline>
</glyph>
<glyph name="uni1D7A" format="2">
  <advance width="1166"/>
  <unicode hex="1D7A"/>
  <anchor x="264" y="0" name="bottom_1"/>
  <anchor x="818" y="0" name="bottom_2"/>
  <anchor x="230" y="277" name="center_1"/>
  <anchor x="813" y="277" name="center_2"/>
  <anchor x="219" y="664" name="top_1"/>
  <anchor x="642" y="760" name="top_2"/>
  <anchor x="421" y="664" name="topright_1"/>
  <anchor x="1081" y="760" name="topright_2"/>
  <outline>
    <contour>
      <point x="35" y="-75" type="line"/>
      <point x="167" y="-75" type="line"/>
      <point x="828" y="760" type="line"/>
      <point x="696" y="760" type="line"/>
    </contour>
    <component base="t"/>
    <component base="h" xOffset="478"/>
  </outline>
</glyph>
<glyph name="uni1D7C" format="2">
  <advance width="435"/>
  <unicode hex="1D7C"/>
  <anchor x="244" y="0" name="bottom"/>
  <anchor x="168" y="553" name="top"/>
  <outline>
    <contour>
      <point x="361" y="357" type="line"/>
      <point x="-3" y="357" type="line"/>
      <point x="-3" y="243" type="line"/>
      <point x="361" y="243" type="line"/>
    </contour>
    <component base="iota"/>
  </outline>
</glyph>
<glyph name="uni1D7F" format="2">
  <advance width="684"/>
  <unicode hex="1D7F"/>
  <anchor x="342" y="0" name="bottom"/>
  <anchor x="342" y="553" name="top"/>
  <outline>
    <contour>
      <point x="681" y="332" type="line"/>
      <point x="3" y="332" type="line"/>
      <point x="3" y="218" type="line"/>
      <point x="681" y="218" type="line"/>
    </contour>
    <component base="uni028A"/>
  </outline>
</glyph>
<glyph name="uni1D80" format="2">
  <advance width="643"/>
  <unicode hex="1D80"/>
  <anchor x="333" y="0" name="bottom"/>
  <anchor x="328" y="760" name="top"/>
  <anchor x="583" y="760" name="topright"/>
  <outline>
    <contour>
      <point x="552" y="114" type="line"/>
      <point x="398" y="52" type="line"/>
      <point x="398" y="-60" type="line" smooth="yes"/>
      <point x="398" y="-109"/>
      <point x="382" y="-122"/>
      <point x="347" y="-122" type="curve"/>
      <point x="333" y="-122"/>
      <point x="316" y="-119"/>
      <point x="300" y="-113" type="curve"/>
      <point x="300" y="-237" type="line"/>
      <point x="328" y="-247"/>
      <point x="359" y="-251"/>
      <point x="393" y="-251" type="curve"/>
      <point x="495" y="-251"/>
      <point x="552" y="-197"/>
      <point x="552" y="-63" type="curve"/>
    </contour>
    <component base="b"/>
  </outline>
</glyph>
<glyph name="uni1D88" format="2">
  <advance width="643"/>
  <unicode hex="1D88"/>
  <anchor x="163" y="-240" name="bottom"/>
  <anchor x="330" y="553" name="top"/>
  <anchor x="623" y="553" name="topright"/>
  <outline>
    <contour>
      <point x="562" y="127" type="line"/>
      <point x="418" y="17" type="line"/>
      <point x="418" y="-40" type="line" smooth="yes"/>
      <point x="418" y="-89"/>
      <point x="402" y="-107"/>
      <point x="367" y="-107" type="curve"/>
      <point x="353" y="-107"/>
      <point x="340" y="-104"/>
      <point x="326" y="-100" type="curve"/>
      <point x="326" y="-219" type="line"/>
      <point x="351" y="-226"/>
      <point x="377" y="-231"/>
      <point x="411" y="-231" type="curve"/>
      <point x="513" y="-231"/>
      <point x="562" y="-177"/>
      <point x="562" y="-43" type="curve"/>
    </contour>
    <component base="p"/>
  </outline>
</glyph>
<glyph name="uni1D8E" format="2">
  <advance width="500"/>
  <unicode hex="1D8E"/>
  <outline>
    <contour>
      <point x="463" y="553" type="line"/>
      <point x="33" y="553" type="line"/>
      <point x="33" y="407" type="line"/>
      <point x="246" y="407" type="line"/>
      <point x="21" y="114" type="line"/>
      <point x="21" y="0" type="line"/>
      <point x="316" y="0" type="line"/>
      <point x="316" y="-59" type="line" smooth="yes"/>
      <point x="316" y="-104"/>
      <point x="300" y="-116"/>
      <point x="266" y="-116" type="curve"/>
      <point x="248" y="-116"/>
      <point x="229" y="-111"/>
      <point x="215" y="-107" type="curve"/>
      <point x="215" y="-238" type="line"/>
      <point x="241" y="-247"/>
      <point x="273" y="-253"/>
      <point x="310" y="-253" type="curve"/>
      <point x="418" y="-253"/>
      <point x="476" y="-196"/>
      <point x="476" y="-60" type="curve"/>
      <point x="476" y="146" type="line"/>
      <point x="249" y="146" type="line"/>
      <point x="463" y="426" type="line"/>
    </contour>
  </outline>
</glyph>
<glyph name="longshighstroke" format="2">
  <advance width="403"/>
  <unicode hex="1E9D"/>
  <anchor x="202" y="0" name="bottom"/>
  <anchor x="202" y="765" name="top"/>
  <outline>
    <contour>
      <point x="-7" y="579" type="line"/>
      <point x="-7" y="457" type="line"/>
      <point x="369" y="457" type="line"/>
      <point x="369" y="579" type="line"/>
    </contour>
    <component base="longs"/>
  </outline>
</glyph>
<glyph name="uni1FEF" format="2">
  <advance width="600"/>
  <unicode hex="1FEF"/>
  <anchor x="306" y="553" name="_top"/>
  <anchor x="275" y="774" name="top"/>
  <outline>
    <contour>
      <point x="373" y="606" type="line"/>
      <point x="373" y="622" type="line"/>
      <point x="361" y="657"/>
      <point x="346" y="725"/>
      <point x="341" y="774" type="curve"/>
      <point x="173" y="774" type="line"/>
      <point x="173" y="759" type="line"/>
      <point x="198" y="705"/>
      <point x="232" y="651"/>
      <point x="268" y="606" type="curve"/>
    </contour>
  </outline>
</glyph>
<glyph name="uni1FFD" format="2">
  <advance width="600"/>
  <unicode hex="1FFD"/>
  <anchor x="306" y="553" name="_top"/>
  <anchor x="362" y="774" name="top"/>
  <outline>
    <contour>
      <point x="246" y="606" type="line"/>
      <point x="351" y="606" type="line"/>
      <point x="397" y="650"/>
      <point x="443" y="708"/>
      <point x="473" y="759" type="curve"/>
      <point x="473" y="774" type="line"/>
      <point x="305" y="774" type="line"/>
      <point x="295" y="727"/>
      <point x="266" y="657"/>
      <point x="246" y="623" type="curve"/>
    </contour>
  </outline>
</glyph>
<glyph name="minussuperior" format="2">
  <advance width="388"/>
  <unicode hex="207B"/>
  <outline>
    <contour>
      <point x="35" y="406" type="line"/>
      <point x="352" y="406" type="line"/>
      <point x="352" y="490" type="line"/>
      <point x="35" y="490" type="line"/>
    </contour>
  </outline>
</glyph>
<glyph name="uni2C68" format="2">
  <advance width="694"/>
  <unicode hex="2C68"/>
  <anchor x="340" y="-203" name="bottom"/>
  <anchor x="164" y="760" name="top"/>
  <anchor x="335" y="277" name="center"/>
  <anchor x="603" y="760" name="topright"/>
  <outline>
    <contour>
      <point x="537" y="132" type="line"/>
      <point x="442" y="0" type="line"/>
      <point x="529" y="0" type="line"/>
      <point x="529" y="-203" type="line"/>
      <point x="694" y="-203" type="line"/>
      <point x="694" y="132" type="line"/>
    </contour>
    <component base="h"/>
  </outline>
</glyph>
<glyph name="uni2C69" format="2">
  <advance width="721"/>
  <unicode hex="2C69"/>
  <anchor x="360" y="-221" name="bottom"/>
  <anchor x="364" y="714" name="top"/>
  <anchor x="667" y="714" name="topright"/>
  <outline>
    <contour>
      <point x="699" y="162" type="line"/>
      <point x="566" y="162" type="line"/>
      <point x="514" y="30" type="line"/>
      <point x="514" y="-221" type="line"/>
      <point x="699" y="-221" type="line"/>
    </contour>
    <component base="K"/>
  </outline>
</glyph>
<glyph name="uni2C6A" format="2">
  <advance width="670"/>
  <unicode hex="2C6A"/>
  <anchor x="330" y="-203" name="bottom"/>
  <anchor x="163" y="760" name="top"/>
  <anchor x="659" y="760" name="topright"/>
  <outline>
    <contour>
      <point x="663" y="132" type="line"/>
      <point x="551" y="132" type="line"/>
      <point x="499" y="20" type="line"/>
      <point x="499" y="-203" type="line"/>
      <point x="663" y="-203" type="line"/>
    </contour>
    <component base="k"/>
  </outline>
</glyph>
<glyph name="tildedotbelow" format="2">
  <advance width="566"/>
  <unicode hex="2E1F"/>
  <outline>
    <contour>
      <point x="206" y="131" type="curve" smooth="yes"/>
      <point x="206" y="73"/>
      <point x="241" y="48"/>
      <point x="282" y="48" type="curve" smooth="yes"/>
      <point x="322" y="48"/>
      <point x="359" y="73"/>
      <point x="359" y="131" type="curve" smooth="yes"/>
      <point x="359" y="193"/>
      <point x="322" y="214"/>
      <point x="282" y="214" type="curve" smooth="yes"/>
      <point x="241" y="214"/>
      <point x="206" y="193"/>
    </contour>
    <component base="asciitilde"/>
  </outline>
</glyph>
<glyph name="uni2E44" format="2">
  <advance width="418"/>
  <unicode hex="2E44"/>
  <outline>
    <contour>
      <point x="137" y="474" type="line"/>
      <point x="385" y="661" type="line"/>
      <point x="273" y="772" type="line"/>
      <point x="55" y="560" type="line"/>
    </contour>
    <contour>
      <point x="137" y="-63" type="line"/>
      <point x="385" y="124" type="line"/>
      <point x="273" y="235" type="line"/>
      <point x="55" y="23" type="line"/>
    </contour>
  </outline>
</glyph>
<glyph name="uni2E4D" format="2">
  <advance width="578"/>
  <unicode hex="2E4D"/>
  <anchor x="289" y="0" name="bottom"/>
  <anchor x="328" y="714" name="top"/>
  <outline>
    <contour>
      <point x="243" y="291" type="line"/>
      <point x="521" y="569" type="line"/>
      <point x="464" y="625" type="line"/>
      <point x="185" y="347" type="line"/>
    </contour>
    <component base="afii10020"/>
  </outline>
</glyph>
<glyph name="uniA662" format="2">
  <advance width="1005"/>
  <unicode hex="A662"/>
  <anchor x="407" y="-222" name="bottom"/>
  <anchor x="407" y="714" name="top"/>
  <outline>
    <contour>
      <point x="980" y="714" type="line"/>
      <point x="504" y="714" type="line"/>
      <point x="504" y="0" type="line"/>
      <point x="698" y="0" type="line"/>
      <point x="698" y="558" type="line"/>
      <point x="980" y="558" type="line"/>
    </contour>
    <component base="afii10021"/>
  </outline>
</glyph>
<glyph name="uniA665" format="2">
  <advance width="865"/>
  <unicode hex="A665"/>
  <anchor x="344" y="0" name="bottom"/>
  <anchor x="344" y="553" name="top"/>
  <outline>
    <contour>
      <point x="841" y="553" type="line"/>
      <point x="430" y="553" type="line"/>
      <point x="430" y="0" type="line"/>
      <point x="621" y="0" type="line"/>
      <point x="621" y="411" type="line"/>
      <point x="841" y="411" type="line"/>
    </contour>
    <component base="afii10077"/>
  </outline>
</glyph>
<glyph name="uniA666" format="2">
  <advance width="1154"/>
  <unicode hex="A666"/>
  <anchor x="481" y="0" name="bottom"/>
  <anchor x="487" y="714" name="top"/>
  <anchor x="947" y="714" name="topright"/>
  <outline>
    <contour>
      <point x="1134" y="714" type="line"/>
      <point x="744" y="714" type="line"/>
      <point x="860" y="556" type="line"/>
      <point x="1134" y="556" type="line"/>
    </contour>
    <component base="M"/>
  </outline>
</glyph>
<glyph name="uniA667" format="2">
  <advance width="1017"/>
  <unicode hex="A667"/>
  <anchor x="430" y="0" name="bottom"/>
  <anchor x="430" y="553" name="top"/>
  <outline>
    <contour>
      <point x="993" y="553" type="line"/>
      <point x="582" y="553" type="line"/>
      <point x="773" y="411" type="line"/>
      <point x="993" y="411" type="line"/>
    </contour>
    <component base="afii10078"/>
  </outline>
</glyph>
<glyph name="uniA681" format="2">
  <advance width="724"/>
  <unicode hex="A681"/>
  <anchor x="349" y="-203" name="bottom"/>
  <anchor x="349" y="553" name="top"/>
  <outline>
    <contour>
      <point x="172" y="739" type="line"/>
      <point x="172" y="487" type="line"/>
      <point x="335" y="487" type="line"/>
      <point x="335" y="739" type="line"/>
    </contour>
    <component base="afii10069"/>
  </outline>
</glyph>
<glyph name="uniA684" format="2">
  <advance width="1363"/>
  <unicode hex="A684"/>
  <anchor x="333" y="0" name="bottom_1"/>
  <anchor x="1015" y="0" name="bottom_2"/>
  <anchor x="330" y="714" name="top_1"/>
  <anchor x="1035" y="714" name="top_2"/>
  <outline>
    <contour>
      <point x="173" y="450" type="line"/>
      <point x="173" y="294" type="line"/>
      <point x="841" y="294" type="line"/>
      <point x="841" y="450" type="line"/>
    </contour>
    <component base="afii10025"/>
    <component base="afii10028" xOffset="666"/>
  </outline>
</glyph>
<glyph name="uniA685" format="2">
  <advance width="1230"/>
  <unicode hex="A685"/>
  <anchor x="272" y="0" name="bottom_1"/>
  <anchor x="892" y="0" name="bottom_2"/>
  <anchor x="262" y="553" name="top_1"/>
  <anchor x="909" y="553" name="top_2"/>
  <outline>
    <contour>
      <point x="153" y="349" type="line"/>
      <point x="153" y="225" type="line"/>
      <point x="704" y="225" type="line"/>
      <point x="704" y="349" type="line"/>
    </contour>
    <component base="afii10073"/>
    <component base="afii10076" xOffset="554"/>
  </outline>
</glyph>
<glyph name="uniA730" format="2">
  <advance width="444"/>
  <unicode hex="A730"/>
  <outline>
    <contour>
      <point x="224" y="0" type="line"/>
      <point x="224" y="208" type="line"/>
      <point x="390" y="208" type="line"/>
      <point x="390" y="328" type="line"/>
      <point x="224" y="328" type="line"/>
      <point x="224" y="433" type="line"/>
      <point x="404" y="433" type="line"/>
      <point x="404" y="553" type="line"/>
      <point x="77" y="553" type="line"/>
      <point x="77" y="0" type="line"/>
    </contour>
  </outline>
</glyph>
<glyph name="uniA731" format="2">
  <advance width="467"/>
  <unicode hex="A731"/>
  <outline>
    <contour>
      <point x="434" y="167" type="curve" smooth="yes"/>
      <point x="434" y="254"/>
      <point x="387" y="294"/>
      <point x="306" y="330" type="curve" smooth="yes"/>
      <point x="224" y="368"/>
      <point x="197" y="380"/>
      <point x="197" y="407" type="curve" smooth="yes"/>
      <point x="197" y="427"/>
      <point x="214" y="443"/>
      <point x="253" y="443" type="curve" smooth="yes"/>
      <point x="293" y="443"/>
      <point x="341" y="429"/>
      <point x="388" y="407" type="curve"/>
      <point x="434" y="523" type="line"/>
      <point x="388" y="543"/>
      <point x="331" y="563"/>
      <point x="258" y="563" type="curve" smooth="yes"/>
      <point x="133" y="563"/>
      <point x="48" y="508"/>
      <point x="48" y="400" type="curve" smooth="yes"/>
      <point x="48" y="304"/>
      <point x="100" y="266"/>
      <point x="183" y="227" type="curve" smooth="yes"/>
      <point x="256" y="195"/>
      <point x="284" y="183"/>
      <point x="284" y="154" type="curve" smooth="yes"/>
      <point x="284" y="130"/>
      <point x="263" y="113"/>
      <point x="219" y="113" type="curve" smooth="yes"/>
      <point x="169" y="113"/>
      <point x="104" y="129"/>
      <point x="44" y="159" type="curve"/>
      <point x="44" y="25" type="line"/>
      <point x="97" y="0"/>
      <point x="139" y="-10"/>
      <point x="216" y="-10" type="curve" smooth="yes"/>
      <point x="368" y="-10"/>
      <point x="434" y="76"/>
    </contour>
  </outline>
</glyph>
<glyph name="uniA741" format="2">
  <advance width="659"/>
  <unicode hex="A741"/>
  <anchor x="330" y="0" name="bottom"/>
  <anchor x="163" y="760" name="top"/>
  <anchor x="659" y="760" name="topright"/>
  <outline>
    <contour>
      <point x="381" y="688" type="line"/>
      <point x="0" y="688" type="line"/>
      <point x="0" y="570" type="line"/>
      <point x="381" y="570" type="line"/>
    </contour>
    <component base="k"/>
  </outline>
</glyph>
<glyph name="uniA744" format="2">
  <advance width="687"/>
  <unicode hex="A744"/>
  <anchor x="360" y="0" name="bottom"/>
  <anchor x="364" y="714" name="top"/>
  <anchor x="667" y="714" name="topright"/>
  <outline>
    <contour>
      <point x="300" y="161" type="line"/>
      <point x="364" y="50" type="line"/>
      <point x="661" y="215" type="line"/>
      <point x="596" y="326" type="line"/>
    </contour>
    <component base="uniA740"/>
  </outline>
</glyph>
<glyph name="uniA745" format="2">
  <advance width="659"/>
  <unicode hex="A745"/>
  <anchor x="330" y="0" name="bottom"/>
  <anchor x="163" y="760" name="top"/>
  <anchor x="659" y="760" name="topright"/>
  <outline>
    <contour>
      <point x="284" y="104" type="line"/>
      <point x="359" y="9" type="line"/>
      <point x="621" y="213" type="line"/>
      <point x="546" y="308" type="line"/>
    </contour>
    <component base="uniA741"/>
  </outline>
</glyph>
<glyph name="uniA748" format="2">
  <advance width="582"/>
  <unicode hex="A748"/>
  <anchor x="309" y="0" name="bottom"/>
  <anchor x="291" y="357" name="center"/>
  <anchor x="170" y="714" name="top"/>
  <anchor x="364" y="714" name="topright"/>
  <outline>
    <contour>
      <point x="10" y="487" type="line"/>
      <point x="364" y="487" type="line"/>
      <point x="364" y="648" type="line"/>
      <point x="10" y="648" type="line"/>
    </contour>
    <component base="L"/>
  </outline>
</glyph>
<glyph name="uniA74B" format="2">
  <advance width="677"/>
  <unicode hex="A74B"/>
  <anchor x="337" y="0" name="bottom"/>
  <anchor x="339" y="277" name="center"/>
  <anchor x="339" y="553" name="top"/>
  <anchor x="637" y="553" name="topright"/>
  <outline>
    <contour>
      <point x="0" y="215" type="line"/>
      <point x="677" y="215" type="line"/>
      <point x="677" y="339" type="line"/>
      <point x="0" y="339" type="line"/>
    </contour>
    <component base="o" xOffset="20"/>
  </outline>
</glyph>
<glyph name="uniA750" format="2">
  <advance width="632"/>
  <unicode hex="A750"/>
  <anchor x="316" y="0" name="bottom"/>
  <anchor x="325" y="714" name="top"/>
  <anchor x="612" y="714" name="topright"/>
  <outline>
    <contour>
      <point x="7" y="65" type="line"/>
      <point x="382" y="65" type="line"/>
      <point x="382" y="190" type="line"/>
      <point x="7" y="190" type="line"/>
    </contour>
    <component base="P"/>
  </outline>
</glyph>
<glyph name="uniA751" format="2">
  <advance width="643"/>
  <unicode hex="A751"/>
  <anchor x="163" y="-240" name="bottom"/>
  <anchor x="330" y="553" name="top"/>
  <anchor x="623" y="553" name="topright"/>
  <outline>
    <contour>
      <point x="-10" y="-168" type="line"/>
      <point x="371" y="-168" type="line"/>
      <point x="371" y="-50" type="line"/>
      <point x="-10" y="-50" type="line"/>
    </contour>
    <component base="p"/>
  </outline>
</glyph>
<glyph name="uniA75C" format="2">
  <advance width="758"/>
  <unicode hex="A75C"/>
  <outline>
    <contour>
      <point x="740" y="138" type="line"/>
      <point x="740" y="285" type="line"/>
      <point x="300" y="285" type="line"/>
      <point x="300" y="291" type="line"/>
      <point x="340" y="333" type="line" smooth="yes"/>
      <point x="423" y="420"/>
      <point x="472" y="471"/>
      <point x="472" y="562" type="curve" smooth="yes"/>
      <point x="472" y="670"/>
      <point x="401" y="725"/>
      <point x="280" y="725" type="curve" smooth="yes"/>
      <point x="155" y="725"/>
      <point x="101" y="676"/>
      <point x="51" y="635" type="curve"/>
      <point x="157" y="511" type="line"/>
      <point x="189" y="543"/>
      <point x="218" y="564"/>
      <point x="243" y="564" type="curve" smooth="yes"/>
      <point x="268" y="564"/>
      <point x="281" y="550"/>
      <point x="281" y="531" type="curve" smooth="yes"/>
      <point x="281" y="498"/>
      <point x="266" y="472"/>
      <point x="184" y="380" type="curve" smooth="yes"/>
      <point x="61" y="242" type="line"/>
      <point x="61" y="138" type="line"/>
    </contour>
    <contour>
      <point x="683" y="0" type="line"/>
      <point x="683" y="429" type="line"/>
      <point x="492" y="429" type="line"/>
      <point x="492" y="0" type="line"/>
    </contour>
  </outline>
</glyph>
<glyph name="uniA75E" format="2">
  <advance width="694"/>
  <unicode hex="A75E"/>
  <anchor x="343" y="0" name="bottom"/>
  <anchor x="347" y="714" name="top"/>
  <anchor x="674" y="714" name="topright"/>
  <outline>
    <contour>
      <point x="320" y="723" type="line"/>
      <point x="103" y="-9" type="line"/>
      <point x="183" y="-9" type="line"/>
      <point x="403" y="723" type="line"/>
    </contour>
    <component base="V"/>
  </outline>
</glyph>
<glyph name="uniA75F" format="2">
  <advance width="611"/>
  <unicode hex="A75F"/>
  <anchor x="307" y="0" name="bottom"/>
  <anchor x="304" y="553" name="top"/>
  <anchor x="591" y="553" name="topright"/>
  <outline>
    <contour>
      <point x="291" y="639" type="line"/>
      <point x="74" y="-93" type="line"/>
      <point x="154" y="-93" type="line"/>
      <point x="374" y="639" type="line"/>
    </contour>
    <component base="v"/>
  </outline>
</glyph>
<glyph name="uniA764" format="2">
  <advance width="629"/>
  <unicode hex="A764"/>
  <outline>
    <contour>
      <point x="342" y="467" type="curve" smooth="yes"/>
      <point x="271" y="467" type="line"/>
      <point x="271" y="531" type="line"/>
      <point x="383" y="531" type="line"/>
      <point x="383" y="654" type="line"/>
      <point x="271" y="654" type="line"/>
      <point x="271" y="714" type="line"/>
      <point x="77" y="714" type="line"/>
      <point x="77" y="654" type="line"/>
      <point x="-3" y="654" type="line"/>
      <point x="-3" y="531" type="line"/>
      <point x="77" y="531" type="line"/>
      <point x="77" y="0" type="line"/>
      <point x="271" y="0" type="line"/>
      <point x="271" y="43" type="line"/>
      <point x="331" y="43" type="line" smooth="yes"/>
      <point x="549" y="43"/>
      <point x="597" y="167"/>
      <point x="597" y="260" type="curve" smooth="yes"/>
      <point x="597" y="384"/>
      <point x="520" y="467"/>
    </contour>
    <contour>
      <point x="299" y="185" type="curve" smooth="yes"/>
      <point x="271" y="185" type="line"/>
      <point x="271" y="325" type="line"/>
      <point x="308" y="325" type="line" smooth="yes"/>
      <point x="373" y="325"/>
      <point x="402" y="308"/>
      <point x="402" y="261" type="curve" smooth="yes"/>
      <point x="402" y="214"/>
      <point x="371" y="185"/>
    </contour>
  </outline>
</glyph>
<glyph name="uniA767" format="2">
  <advance width="643"/>
  <unicode hex="A767"/>
  <anchor x="322" y="-240" name="bottom"/>
  <anchor x="322" y="760" name="top"/>
  <outline>
    <contour>
      <point x="391" y="-49" type="line"/>
      <point x="3" y="-49" type="line"/>
      <point x="3" y="-171" type="line"/>
      <point x="391" y="-171" type="line"/>
    </contour>
    <component base="thorn"/>
  </outline>
</glyph>
<glyph name="uniA768" format="2">
  <advance width="842"/>
  <unicode hex="A768"/>
  <outline>
    <contour>
      <point x="317" y="-96" type="line"/>
      <point x="317" y="-11" type="line"/>
      <point x="842" y="714" type="line"/>
      <point x="620" y="714" type="line"/>
      <point x="441" y="471" type="line" smooth="yes"/>
      <point x="393" y="397"/>
      <point x="345" y="319"/>
      <point x="304" y="225" type="curve"/>
      <point x="295" y="228" type="line"/>
      <point x="309" y="282"/>
      <point x="317" y="352"/>
      <point x="317" y="412" type="curve" smooth="yes"/>
      <point x="317" y="571" type="line"/>
      <point x="406" y="604" type="line"/>
      <point x="406" y="714" type="line"/>
      <point x="34" y="714" type="line"/>
      <point x="34" y="604" type="line"/>
      <point x="123" y="571" type="line"/>
      <point x="123" y="-96" type="line"/>
      <point x="34" y="-130" type="line"/>
      <point x="34" y="-240" type="line"/>
      <point x="406" y="-240" type="line"/>
      <point x="406" y="-130" type="line"/>
    </contour>
  </outline>
</glyph>
<glyph name="uniA771" format="2">
  <advance width="875"/>
  <unicode hex="A771"/>
  <anchor x="314" y="0" name="bottom"/>
  <anchor x="322" y="277" name="center"/>
  <anchor x="234" y="760" name="top"/>
  <anchor x="603" y="760" name="topright"/>
  <outline>
    <contour>
      <point x="515" y="0" type="line"/>
      <point x="848" y="0" type="line"/>
      <point x="848" y="144" type="line"/>
      <point x="515" y="144" type="line"/>
    </contour>
    <contour>
      <point x="665" y="298" type="line"/>
      <point x="523" y="-157" type="line"/>
      <point x="640" y="-157" type="line"/>
      <point x="781" y="298" type="line"/>
    </contour>
    <component base="d"/>
  </outline>
</glyph>
<glyph name="uniA772" format="2">
  <advance width="564"/>
  <unicode hex="A772"/>
  <anchor x="162" y="0" name="bottom"/>
  <anchor x="162" y="277" name="center"/>
  <anchor x="162" y="760" name="top"/>
  <anchor x="278" y="760" name="topright"/>
  <outline>
    <contour>
      <point x="204" y="0" type="line"/>
      <point x="537" y="0" type="line"/>
      <point x="537" y="144" type="line"/>
      <point x="204" y="144" type="line"/>
    </contour>
    <contour>
      <point x="353" y="298" type="line"/>
      <point x="211" y="-157" type="line"/>
      <point x="328" y="-157" type="line"/>
      <point x="469" y="298" type="line"/>
    </contour>
    <component base="l"/>
  </outline>
</glyph>
<glyph name="uniA773" format="2">
  <advance width="1256"/>
  <unicode hex="A773"/>
  <anchor x="504" y="0" name="bottom"/>
  <anchor x="520" y="553" name="top"/>
  <anchor x="966" y="553" name="topright"/>
  <outline>
    <contour>
      <point x="896" y="0" type="line"/>
      <point x="1229" y="0" type="line"/>
      <point x="1229" y="144" type="line"/>
      <point x="896" y="144" type="line"/>
    </contour>
    <contour>
      <point x="1045" y="298" type="line"/>
      <point x="903" y="-157" type="line"/>
      <point x="1020" y="-157" type="line"/>
      <point x="1161" y="298" type="line"/>
    </contour>
    <component base="m"/>
  </outline>
</glyph>
<glyph name="uniA774" format="2">
  <advance width="915"/>
  <unicode hex="A774"/>
  <anchor x="335" y="0" name="bottom"/>
  <anchor x="335" y="553" name="top"/>
  <anchor x="636" y="553" name="topright"/>
  <outline>
    <contour>
      <point x="555" y="0" type="line"/>
      <point x="888" y="0" type="line"/>
      <point x="888" y="144" type="line"/>
      <point x="555" y="144" type="line"/>
    </contour>
    <contour>
      <point x="705" y="298" type="line"/>
      <point x="563" y="-157" type="line"/>
      <point x="680" y="-157" type="line"/>
      <point x="821" y="298" type="line"/>
    </contour>
    <component base="n"/>
  </outline>
</glyph>
<glyph name="uniA781" format="2">
  <advance width="323"/>
  <unicode hex="A781"/>
  <outline>
    <contour>
      <point x="257" y="-240" type="line"/>
      <point x="257" y="553" type="line"/>
      <point x="66" y="553" type="line"/>
      <point x="66" y="-240" type="line"/>
    </contour>
  </outline>
</glyph>
<glyph name="uniA790" format="2">
  <advance width="925"/>
  <unicode hex="A790"/>
  <anchor x="417" y="0" name="bottom"/>
  <anchor x="417" y="714" name="top"/>
  <anchor x="814" y="714" name="topright"/>
  <outline>
    <contour>
      <point x="719" y="0" type="line"/>
      <point x="719" y="-222" type="line"/>
      <point x="907" y="-222" type="line"/>
      <point x="907" y="158" type="line"/>
      <point x="757" y="158" type="line"/>
    </contour>
    <component base="N"/>
  </outline>
</glyph>
<glyph name="uniA792" format="2">
  <advance width="649"/>
  <unicode hex="A792"/>
  <anchor x="379" y="0" name="bottom"/>
  <anchor x="365" y="714" name="top"/>
  <anchor x="629" y="714" name="topright"/>
  <outline>
    <contour>
      <point x="-5" y="274" type="line"/>
      <point x="413" y="274" type="line"/>
      <point x="413" y="432" type="line"/>
      <point x="-5" y="432" type="line"/>
    </contour>
    <component base="C"/>
  </outline>
</glyph>
<glyph name="uniA794" format="2">
  <advance width="539"/>
  <unicode hex="A794"/>
  <anchor x="315" y="0" name="bottom"/>
  <anchor x="293" y="553" name="top"/>
  <anchor x="514" y="553" name="topright"/>
  <outline>
    <contour>
      <point x="306" y="52" type="line"/>
      <point x="306" y="-18" type="line" smooth="yes"/>
      <point x="306" y="-104"/>
      <point x="273" y="-122"/>
      <point x="237" y="-122" type="curve" smooth="yes"/>
      <point x="215" y="-122"/>
      <point x="201" y="-120"/>
      <point x="175" y="-113" type="curve"/>
      <point x="175" y="-261" type="line"/>
      <point x="202" y="-269"/>
      <point x="250" y="-273"/>
      <point x="285" y="-273" type="curve" smooth="yes"/>
      <point x="438" y="-273"/>
      <point x="495" y="-168"/>
      <point x="495" y="-58" type="curve" smooth="yes"/>
      <point x="495" y="164" type="line"/>
    </contour>
    <component base="c"/>
  </outline>
</glyph>
<glyph name="uniA799" format="2">
  <advance width="413"/>
  <unicode hex="A799"/>
  <anchor x="190" y="0" name="bottom"/>
  <anchor x="276" y="765" name="top"/>
  <anchor x="432" y="765" name="topright"/>
  <outline>
    <contour>
      <point x="401" y="336" type="line"/>
      <point x="23" y="336" type="line"/>
      <point x="23" y="217" type="line"/>
      <point x="401" y="217" type="line"/>
    </contour>
    <component base="f"/>
  </outline>
</glyph>
<glyph name="uniA7A1" format="2">
  <advance width="643"/>
  <unicode hex="A7A1"/>
  <anchor x="293" y="-240" name="bottom"/>
  <anchor x="314" y="553" name="top"/>
  <anchor x="603" y="553" name="topright"/>
  <outline>
    <contour>
      <point x="0" y="303" type="line"/>
      <point x="0" y="196" type="line"/>
      <point x="642" y="264" type="line"/>
      <point x="642" y="371" type="line"/>
    </contour>
    <component base="g"/>
  </outline>
</glyph>
<glyph name="uniA7A4" format="2">
  <advance width="834"/>
  <unicode hex="A7A4"/>
  <anchor x="417" y="0" name="bottom"/>
  <anchor x="417" y="714" name="top"/>
  <anchor x="814" y="714" name="topright"/>
  <outline>
    <contour>
      <point x="3" y="357" type="line"/>
      <point x="3" y="249" type="line"/>
      <point x="832" y="356" type="line"/>
      <point x="832" y="464" type="line"/>
    </contour>
    <component base="N"/>
  </outline>
</glyph>
<glyph name="uniA7A5" format="2">
  <advance width="670"/>
  <unicode hex="A7A5"/>
  <anchor x="335" y="0" name="bottom"/>
  <anchor x="335" y="553" name="top"/>
  <anchor x="636" y="553" name="topright"/>
  <outline>
    <contour>
      <point x="3" y="266" type="line"/>
      <point x="3" y="158" type="line"/>
      <point x="670" y="251" type="line"/>
      <point x="670" y="358" type="line"/>
    </contour>
    <component base="n"/>
  </outline>
</glyph>
<glyph name="uniA7A7" format="2">
  <advance width="469"/>
  <unicode hex="A7A7"/>
  <anchor x="165" y="0" name="bottom"/>
  <anchor x="251" y="553" name="top"/>
  <anchor x="449" y="553" name="topright"/>
  <outline>
    <contour>
      <point x="2" y="265" type="line"/>
      <point x="2" y="158" type="line"/>
      <point x="439" y="218" type="line"/>
      <point x="439" y="325" type="line"/>
    </contour>
    <component base="r"/>
  </outline>
</glyph>
<glyph name="uniA7AE" format="2">
  <advance width="356"/>
  <unicode hex="A7AE"/>
  <outline>
    <contour>
      <point x="322" y="0" type="line"/>
      <point x="322" y="85" type="line"/>
      <point x="253" y="112" type="line"/>
      <point x="253" y="442" type="line"/>
      <point x="322" y="468" type="line"/>
      <point x="322" y="553" type="line"/>
      <point x="34" y="553" type="line"/>
      <point x="34" y="468" type="line"/>
      <point x="103" y="442" type="line"/>
      <point x="103" y="112" type="line"/>
      <point x="34" y="85" type="line"/>
      <point x="34" y="0" type="line"/>
    </contour>
  </outline>
</glyph>
<glyph name="uniA7B8" format="2">
  <advance width="757"/>
  <unicode hex="A7B8"/>
  <anchor x="377" y="0" name="bottom"/>
  <anchor x="379" y="714" name="top"/>
  <anchor x="737" y="714" name="topright"/>
  <outline>
    <contour>
      <point x="143" y="-59" type="line"/>
      <point x="724" y="691" type="line"/>
      <point x="637" y="756" type="line"/>
      <point x="53" y="8" type="line"/>
    </contour>
    <component base="U"/>
  </outline>
</glyph>
<glyph name="uniA7B9" format="2">
  <advance width="670"/>
  <unicode hex="A7B9"/>
  <anchor x="329" y="0" name="bottom"/>
  <anchor x="335" y="553" name="top"/>
  <anchor x="636" y="553" name="topright"/>
  <outline>
    <contour>
      <point x="89" y="-56" type="line"/>
      <point x="651" y="499" type="line"/>
      <point x="585" y="571" type="line"/>
      <point x="22" y="14" type="line"/>
    </contour>
    <component base="u"/>
  </outline>
</glyph>
<glyph name="uniA7C7" format="2">
  <advance width="734"/>
  <unicode hex="A7C7"/>
  <anchor x="359" y="0" name="bottom"/>
  <anchor x="367" y="357" name="center"/>
  <anchor x="367" y="714" name="top"/>
  <anchor x="714" y="714" name="topright"/>
  <outline>
    <contour>
      <point x="177" y="320" type="line"/>
      <point x="562" y="320" type="line"/>
      <point x="562" y="405" type="line"/>
      <point x="177" y="405" type="line"/>
    </contour>
    <component base="D"/>
  </outline>
</glyph>
<glyph name="uniAB41" format="2">
  <advance width="980"/>
  <unicode hex="AB41"/>
  <anchor x="490" y="553" name="bottom"/>
  <anchor x="490" y="0" name="top"/>
  <outline>
    <contour>
      <point x="549" y="-50" type="line"/>
      <point x="848" y="553" type="line"/>
      <point x="768" y="595" type="line"/>
      <point x="468" y="-10" type="line"/>
    </contour>
    <component base="oe" xScale="-1" yScale="-1" xOffset="980" yOffset="553"/>
  </outline>
</glyph>
<glyph name="uniAB42" format="2">
  <advance width="980"/>
  <unicode hex="AB42"/>
  <anchor x="490" y="553" name="bottom"/>
  <anchor x="490" y="0" name="top"/>
  <outline>
    <contour>
      <point x="492" y="335" type="line"/>
      <point x="492" y="215" type="line"/>
      <point x="837" y="215" type="line"/>
      <point x="837" y="335" type="line"/>
    </contour>
    <component base="oe" xScale="-1" yScale="-1" xOffset="980" yOffset="553"/>
  </outline>
</glyph>
<glyph name="uniAB60" format="2">
  <advance width="903"/>
  <unicode hex="AB60"/>
  <outline>
    <contour>
      <point x="389" y="0" type="line"/>
      <point x="621" y="0" type="line" smooth="yes"/>
      <point x="810" y="0"/>
      <point x="871" y="73"/>
      <point x="871" y="184" type="curve" smooth="yes"/>
      <point x="871" y="292"/>
      <point x="817" y="354"/>
      <point x="643" y="354" type="curve" smooth="yes"/>
      <point x="580" y="354" type="line"/>
      <point x="580" y="553" type="line"/>
      <point x="389" y="553" type="line"/>
    </contour>
    <contour>
      <point x="66" y="0" type="line"/>
      <point x="257" y="0" type="line"/>
      <point x="257" y="553" type="line"/>
      <point x="66" y="553" type="line"/>
    </contour>
    <contour>
      <point x="580" y="125" type="line"/>
      <point x="580" y="229" type="line"/>
      <point x="610" y="229" type="line" smooth="yes"/>
      <point x="666" y="229"/>
      <point x="680" y="209"/>
      <point x="680" y="175" type="curve" smooth="yes"/>
      <point x="680" y="143"/>
      <point x="659" y="125"/>
      <point x="612" y="125" type="curve" smooth="yes"/>
    </contour>
  </outline>
</glyph>
<glyph name="combiningconjoiningmacron" format="2">
  <unicode hex="FE26"/>
  <anchor x="0" y="553" name="_top"/>
  <outline>
    <contour>
      <point x="-355" y="722" type="line"/>
      <point x="-355" y="606" type="line"/>
      <point x="355" y="606" type="line"/>
      <point x="355" y="722" type="line"/>
    </contour>
  </outline>
</glyph>
<glyph name="uniFE2E" format="2">
  <unicode hex="FE2E"/>
  <anchor x="0" y="553" name="_top"/>
  <outline>
    <contour>
      <point x="-39" y="601" type="curve"/>
      <point x="170" y="601" type="line"/>
      <point x="170" y="716" type="line"/>
      <point x="-89" y="716" type="line" smooth="yes"/>
      <point x="-148" y="716"/>
      <point x="-170" y="683"/>
      <point x="-170" y="634" type="curve" smooth="yes"/>
      <point x="-170" y="598"/>
      <point x="-148" y="559"/>
      <point x="-104" y="559" type="curve" smooth="yes"/>
      <point x="-68" y="559"/>
      <point x="-44" y="570"/>
    </contour>
  </outline>
</glyph>
<glyph name="uniFE2F" format="2">
  <unicode hex="FE2F"/>
  <anchor x="-1" y="553" name="_top"/>
  <outline>
    <contour>
      <point x="-171" y="601" type="line"/>
      <point x="88" y="601" type="line" smooth="yes"/>
      <point x="156" y="601"/>
      <point x="170" y="644"/>
      <point x="170" y="685" type="curve" smooth="yes"/>
      <point x="170" y="730"/>
      <point x="149" y="758"/>
      <point x="103" y="758" type="curve" smooth="yes"/>
      <point x="69" y="758"/>
      <point x="42" y="742"/>
      <point x="39" y="716" type="curve"/>
      <point x="-171" y="716" type="line"/>
    </contour>
  </outline>
</glyph>
<glyph name="macronacute" format="2">
  <outline>
    <contour>
      <point x="-93" y="744" type="line"/>
      <point x="34" y="744" type="line"/>
      <point x="79" y="770"/>
      <point x="156" y="831"/>
      <point x="189" y="871" type="curve"/>
      <point x="189" y="888" type="line"/>
      <point x="-8" y="888" type="line"/>
      <point x="-24" y="852"/>
      <point x="-70" y="786"/>
      <point x="-93" y="760" type="curve"/>
    </contour>
    <contour>
      <point x="-165" y="606" type="line"/>
      <point x="166" y="606" type="line"/>
      <point x="166" y="716" type="line"/>
      <point x="-165" y="716" type="line"/>
    </contour>
  </outline>
</glyph>
